<svg xmlns="http://www.w3.org/2000/svg" width="36.745" height="36.745" viewBox="0 0 36.745 36.745"><g transform="translate(0.001 0)"><path d="M214.033,210.517A3.517,3.517,0,1,1,210.517,207,3.517,3.517,0,0,1,214.033,210.517Zm0,0" transform="translate(-192.145 -192.143)" fill="#fff"/><path d="M152.358,137.916a3.494,3.494,0,0,0-2-2,5.837,5.837,0,0,0-1.959-.363c-1.113-.051-1.446-.062-4.263-.062s-3.151.011-4.263.061a5.841,5.841,0,0,0-1.959.363,3.5,3.5,0,0,0-2,2,5.841,5.841,0,0,0-.363,1.959c-.051,1.112-.062,1.446-.062,4.263s.011,3.151.062,4.263a5.838,5.838,0,0,0,.363,1.959,3.493,3.493,0,0,0,2,2,5.829,5.829,0,0,0,1.959.363c1.112.051,1.446.061,4.263.061s3.151-.011,4.263-.061a5.829,5.829,0,0,0,1.959-.363,3.493,3.493,0,0,0,2-2,5.841,5.841,0,0,0,.363-1.959c.051-1.113.061-1.446.061-4.263s-.011-3.151-.061-4.263A5.83,5.83,0,0,0,152.358,137.916Zm-8.224,11.639a5.417,5.417,0,1,1,5.417-5.417A5.417,5.417,0,0,1,144.134,149.555Zm5.631-9.783a1.266,1.266,0,1,1,1.266-1.266A1.266,1.266,0,0,1,149.765,139.772Zm0,0" transform="translate(-125.762 -125.764)" fill="#fff"/><path d="M18.372,0A18.373,18.373,0,1,0,36.745,18.373,18.374,18.374,0,0,0,18.372,0ZM28.858,22.722a7.741,7.741,0,0,1-.49,2.561,5.394,5.394,0,0,1-3.085,3.085,7.745,7.745,0,0,1-2.561.49c-1.125.051-1.484.064-4.349.064s-3.224-.012-4.35-.064a7.745,7.745,0,0,1-2.561-.49,5.394,5.394,0,0,1-3.085-3.085,7.739,7.739,0,0,1-.49-2.561c-.052-1.125-.064-1.485-.064-4.35s.012-3.225.064-4.35a7.741,7.741,0,0,1,.49-2.561,5.4,5.4,0,0,1,3.086-3.085,7.747,7.747,0,0,1,2.561-.49c1.125-.051,1.484-.064,4.349-.064s3.224.012,4.349.064a7.749,7.749,0,0,1,2.561.49,5.4,5.4,0,0,1,3.085,3.086,7.74,7.74,0,0,1,.491,2.561c.051,1.125.063,1.484.063,4.35S28.91,21.6,28.858,22.722Zm0,0" transform="translate(-0.001 0.001)" fill="#fff"/></g></svg>