<svg xmlns="http://www.w3.org/2000/svg" width="65.352" height="50" viewBox="0 0 65.352 50"><path d="M957.764,1166.389a4.257,4.257,0,0,1,1.42,3.67,4.16,4.16,0,0,1-1.446,2.793,4.383,4.383,0,0,1-3.1,1.092,4.1,4.1,0,0,1-2.912-1.328,4.327,4.327,0,0,1,1.2-6.915,4.5,4.5,0,0,1,1.756-.425A4.211,4.211,0,0,1,957.764,1166.389Zm.855,17.374v1.067s-.495.608-.71.85a38.047,38.047,0,0,1-9.451,7.743,21.223,21.223,0,0,1-6.821,2.535,14.45,14.45,0,0,1-7.91-.852,18.674,18.674,0,0,1-6.985-5.493c-1,.893-1.973,1.86-2.96,2.793a9.574,9.574,0,0,1-.971.879c.016-.734-.03-1.532.022-2.226-.1-.035-.2.091-.261.143-4.181,3.3-8.362,6.711-12.83,9.778a32.293,32.293,0,0,1-4.786,2.866v-6.654a1.126,1.126,0,0,0,.471-.07,13.25,13.25,0,0,0,2.939-1.635c6.388-4.237,12.021-9.254,17.877-13.973a7.458,7.458,0,0,0,2.678,3.433c1.393-1.25,2.783-2.5,4.237-3.694a38.783,38.783,0,0,1,4.546-3.361,25.817,25.817,0,0,1,12.693-3.576v6.275a19.811,19.811,0,0,0-3.791-1.3,15.108,15.108,0,0,0-7.364.521,16.12,16.12,0,0,0-3.269,1.562,31.522,31.522,0,0,0-4.95,4.122c-.1.091-.272.194-.239.282a10.783,10.783,0,0,0,5.923-.71,36.58,36.58,0,0,0,9.9-5.78v3.409c0,.417.008,1.5,0,2.6,0,0-.126.113-.376.309a21.824,21.824,0,0,1-7.439,4.122,11,11,0,0,1-5.66.188,9.561,9.561,0,0,1-4.213-2.39c-.317.245-.578.543-.879.8,1.828,2.14,4.977,3.517,9.023,3.057a17.117,17.117,0,0,0,4.737-1.374,25.874,25.874,0,0,0,4-2.132c6.42-4.208,9.039-7.523,12.811-11.744C958.619,1178.579,958.619,1181.211,958.619,1183.763ZM925.6,1188.1c-.073.073-.132.234-.258.191.038-1.869.038-3.907,0-5.778a23.132,23.132,0,0,0,2.272,3.648C926.985,1186.79,926.283,1187.465,925.6,1188.1Zm21.339,9v6.227a14.582,14.582,0,0,1-6.676-.664c-1.947-.624-3.662-1.627-5.4-2.366a21.564,21.564,0,0,0-6.063-1.659,8.282,8.282,0,0,0-5.4,1.065,2.291,2.291,0,0,1-.543.379c.04-1.855.04-3.874,0-5.732,2.358-1.218,5.961-.433,8.122.5.782.336,1.522.761,2.3,1.137s1.6.713,2.4,1.043c.406.169.8.363,1.229.5a15.309,15.309,0,0,0,4.38.567A15.529,15.529,0,0,0,946.942,1197.1Zm-18.788-30.787a4.416,4.416,0,0,1,1.422,4.073,4.356,4.356,0,1,1-6.184-4.689,4.3,4.3,0,0,1,1.519-.425A4.4,4.4,0,0,1,928.154,1166.311Zm-2.785,13.876a4.2,4.2,0,0,1,0,.8c-.035.14-.368.379-.567.546-3.052,2.519-6.114,4.977-9.235,7.364-1.686,1.288-3.39,2.549-5.116,3.74a37.577,37.577,0,0,1-5.493,3.364v-6.654a9.055,9.055,0,0,0,3.006-1.42c.9-.562,1.756-1.2,2.6-1.8,5.143-3.659,9.891-7.708,14.728-11.722.008-.027.048-.013.048-.048.022,0,.024.011.024.024C925.369,1176.216,925.369,1178.249,925.369,1180.187Zm-4.856-10.7c0,1.062.048,2.1-.046,3.078-.255,2.64-1.054,5.227-2.7,6.63-.543.462-1.17.863-1.774,1.35-1.21.965-2.363,1.853-3.5,2.748a44.649,44.649,0,0,1-7.531,4.926v-3.385a8.314,8.314,0,0,1,.07-1.61,12.774,12.774,0,0,1,1.468-3.6c.406-.721.871-1.406,1.231-2.129a10.747,10.747,0,0,0,1.3-5.3,6.906,6.906,0,0,0-1.3-3.7,1.981,1.981,0,0,0-2.742-.9c-1.729.562-2.578,2.116-3.388,3.576a14.156,14.156,0,0,1,3.363,1.7,5.112,5.112,0,0,1,2.248,2.818c.3,1.3-.543,2.871-1.067,3.767a6.543,6.543,0,0,1-2.414,2.63,3.863,3.863,0,0,1-2.033.495,6.127,6.127,0,0,1-2.038-.495c-2.436-.936-3.847-2.936-4.237-5.875a8.454,8.454,0,0,1,.591-4.261c-1-.731-2.18-1.592-2.156-3.124a5.4,5.4,0,0,1,1.61-3.269h2.32c.032.086-.1.126-.143.164a10.348,10.348,0,0,0-1.256,1.4,2.739,2.739,0,0,0-.71,2.25c.145.489.57.71,1.043.925a8.276,8.276,0,0,1,3.9-4.122,4.942,4.942,0,0,1,2.062-.616h10.7v8.168a6.14,6.14,0,0,1-1.941,4.261c-1.118,1.274-2.242,2.291-3.458,3.506-.266.264-.559.583-.852.876-.57.573-1.194.965-1.137,2.132a44.4,44.4,0,0,0,5.517-4.476,14.907,14.907,0,0,0,2.417-2.605,7.619,7.619,0,0,0,1.159-3.861c.234-2.906.094-6.254.094-9.614v-10.018c0-.032,0-.067.027-.073h5.3Zm-18.35,5.471a3.234,3.234,0,0,1,1.137,2.82,6.186,6.186,0,0,1-.57,1.8,2.8,2.8,0,0,1-.944,1.3,2.286,2.286,0,0,1-3.269-1.043c-.731-1.906.3-4.17,1.161-5.517a4.994,4.994,0,0,1,.4-.543A6.477,6.477,0,0,1,902.164,1174.955Z" transform="translate(-893.85 -1153.847)" fill="#efebe7" fill-rule="evenodd"/></svg>