<svg xmlns="http://www.w3.org/2000/svg" width="36.746" height="36.746" viewBox="0 0 36.746 36.746"><g transform="translate(0)"><g transform="translate(0 0)"><path d="M27.6,2.474A17.971,17.971,0,0,0,18.373.01,17.971,17.971,0,0,0,9.15,2.474,18.294,18.294,0,0,0,2.464,9.161,17.974,17.974,0,0,0,0,18.383,17.809,17.809,0,0,0,3.038,28.5,18.306,18.306,0,0,0,11,35.225a15.818,15.818,0,0,1,.311-4.234l2.368-10a6.381,6.381,0,0,1-.6-2.919,5.479,5.479,0,0,1,1.029-3.4,3.057,3.057,0,0,1,2.512-1.364,2.243,2.243,0,0,1,1.842.79,3.032,3.032,0,0,1,.646,1.985,7.449,7.449,0,0,1-.275,1.806q-.276,1.065-.718,2.464t-.634,2.237a2.714,2.714,0,0,0,.55,2.5,2.924,2.924,0,0,0,2.345,1.041q2.56,0,4.2-2.847a13.651,13.651,0,0,0,1.639-6.914,6.784,6.784,0,0,0-2.021-5.1,7.754,7.754,0,0,0-5.634-1.962,8.71,8.71,0,0,0-9.043,8.8,5.444,5.444,0,0,0,1.22,3.613,1.091,1.091,0,0,1,.263,1.028q-.048.144-.191.718c-.1.383-.16.63-.191.742q-.192.766-.909.478a5.4,5.4,0,0,1-2.8-2.655,9.564,9.564,0,0,1-.957-4.378,10.442,10.442,0,0,1,.514-3.206,10.932,10.932,0,0,1,1.6-3.1,12.6,12.6,0,0,1,2.608-2.643,12.251,12.251,0,0,1,3.7-1.843,15.373,15.373,0,0,1,4.689-.694,12.314,12.314,0,0,1,6.1,1.507,10.774,10.774,0,0,1,4.127,3.9,9.847,9.847,0,0,1,1.424,5.12,16.1,16.1,0,0,1-1.244,6.46,10.609,10.609,0,0,1-3.517,4.51,8.618,8.618,0,0,1-5.168,1.639,5.668,5.668,0,0,1-2.727-.682,3.986,3.986,0,0,1-1.747-1.615q-1.076,4.234-1.292,5.048a14.728,14.728,0,0,1-1.866,3.923,18.372,18.372,0,0,0,14.438-1.7A18.3,18.3,0,0,0,34.282,27.6a17.975,17.975,0,0,0,2.464-9.223,17.977,17.977,0,0,0-2.464-9.223A18.3,18.3,0,0,0,27.6,2.474Z" transform="translate(0 -0.01)" fill="#fff"/></g></g></svg>